<svg id="a-1" xmlns="http://www.w3.org/2000/svg" xmlns:xlink="http://www.w3.org/1999/xlink" width="132.236" height="19.744" viewBox="0 0 132.236 19.744">
  <defs>
    <linearGradient id="linear-gradient" y1="0.5" x2="1" y2="0.5" gradientUnits="objectBoundingBox">
      <stop offset="0" stop-color="#3e78f3"/>
      <stop offset="0.32" stop-color="#437df6"/>
      <stop offset="1" stop-color="#3db6f3"/>
    </linearGradient>
  </defs>
  <g id="图层_1" data-name="图层 1" transform="translate(0 0)">
    <path id="路径_467" data-name="路径 467" d="M496.127,1.552h2.315V15.446h-1.785v-9.2q0-1.141.133-2.736h-.044a8.563,8.563,0,0,1-.412,1.4l-4.583,10.532h-1L486.189,4.989a9.66,9.66,0,0,1-.412-1.481h-.053q.09.969.09,2.808v9.127H484.1V1.552h2.422l4.1,9.526a12.406,12.406,0,0,1,.618,1.7h.063q.465-1.283.655-1.739ZM512.56,3.265a7.247,7.247,0,0,1,1.766,5.069,7.643,7.643,0,0,1-1.811,5.362,6.248,6.248,0,0,1-4.843,1.983,6.111,6.111,0,0,1-4.739-1.947,7.255,7.255,0,0,1-1.79-5.067,7.63,7.63,0,0,1,1.82-5.355A6.356,6.356,0,0,1,507.9,1.32,6,6,0,0,1,512.56,3.265Zm-.126,5.283A6.232,6.232,0,0,0,511.191,4.4a4.231,4.231,0,0,0-3.4-1.462,4.316,4.316,0,0,0-3.444,1.543,6,6,0,0,0-1.318,4.046,6.035,6.035,0,0,0,1.287,4.037,4.2,4.2,0,0,0,3.36,1.518,4.387,4.387,0,0,0,3.493-1.457A6.012,6.012,0,0,0,512.434,8.548Zm16.612-7-4.171,9.491q-.19.458-.655,1.739h-.063a12.224,12.224,0,0,0-.62-1.7l-4.1-9.526h-2.431V15.446h1.713V6.319q0-1.848-.09-2.808h.054a9.448,9.448,0,0,0,.412,1.481l4.574,10.454h1l4.583-10.532a8.339,8.339,0,0,0,.414-1.4h.044q-.135,1.6-.135,2.736v9.2h1.785V1.552Z" transform="translate(-399.123 -1.083)" fill="url(#linear-gradient)"/>
    <path id="路径_468" data-name="路径 468" d="M214.411.074c1.48,0,2.959-.012,4.439,0a3.521,3.521,0,0,1,3.686,4.265c-.223,1.527-.527,3.042-.741,4.564-.46,3.159-2.077,4.681-5.266,4.806A22.157,22.157,0,0,1,212,13.585c-.653-.111-.915.1-.983.748-.112,1.1-.309,2.182-.437,3.275a1.117,1.117,0,0,1-.929,1.113c-1.065.267-2.106.614-3.16.976-.541.186-.765.158-.658-.5q1.02-6.24,2-12.487a1.16,1.16,0,0,1,.686-.934c.527-.269,1.053-.576,1.58-.834.59-.283.75-.567.083-.946-.109-.061-.205-.142-.311-.212C208.285,2.73,208.2,2.411,208.8.552c.165-.511.511-.476.878-.476H214.4ZM213.87,10.99c.63,0,1.262.018,1.89,0a1.451,1.451,0,0,0,1.473-1.229q.513-2.738.864-5.508c.125-1-.283-1.4-1.288-1.425-1.039-.028-2.08.019-3.119-.018-.632-.023-.9.214-.978.843-.228,1.718-.514,3.428-.771,5.141C211.6,11.025,211.608,11.027,213.87,10.99Z" transform="translate(-169.683 -0.052)" fill="#fff"/>
    <path id="路径_469" data-name="路径 469" d="M42.152.081C43.818.132,45.487,0,47.15.2a3.282,3.282,0,0,1,3.063,3.686c-.432,3.089-.978,6.159-1.45,9.243-.075.49-.3.62-.75.611-1.039-.021-2.08-.025-3.121,0-.513.012-.662-.165-.577-.672.47-2.828.909-5.654,1.38-8.48.207-1.246-.205-1.766-1.481-1.776h-.19c-2.808,0-2.808,0-3.237,2.821-.37,2.429-.778,4.852-1.12,7.284-.09.632-.314.865-.957.832a23.9,23.9,0,0,0-2.837,0c-.807.056-.781-.365-.688-.925q.721-4.388,1.427-8.766c.176-1.088.379-2.173.527-3.265.072-.539.288-.734.853-.721C39.377.108,40.766.081,42.152.081Z" transform="translate(-28.969 -0.05)" fill="#fff"/>
    <path id="路径_470" data-name="路径 470" d="M314.628,13.653c-1.385,0-2.772.016-4.156,0-2.533-.037-3.988-1.694-3.614-4.2.416-2.835.9-5.659,1.322-8.492.107-.7.351-1.053,1.146-.981a12.916,12.916,0,0,0,2.359,0c.907-.079,1.073.307.934,1.106-.437,2.512-.839,5.031-1.248,7.548a8.153,8.153,0,0,0-.118,1.03,1.052,1.052,0,0,0,1.1,1.239c.944.033,1.89.011,2.833.037.576.016.642-.351.711-.792.481-3.016,1.009-6.024,1.438-9.048.121-.858.465-1.125,1.276-1.079a21.258,21.258,0,0,0,2.547,0c.632-.042.771.195.676.769-.581,3.54-1.134,7.086-1.724,10.626-.372,2.24-.395,2.236-2.649,2.236Z" transform="translate(-252.944 0.028)" fill="#fff"/>
    <path id="路径_471" data-name="路径 471" d="M133.569.077c1.513,0,3.026.021,4.537-.011.583-.012.755.116.658.749-.3,1.985-.27,1.99-2.282,1.99h-5.861a1.972,1.972,0,0,0-1.257.318,1.468,1.468,0,0,0-.653,1.643c.176.662.7.843,1.316.848,1.387.011,2.773,0,4.16.011a3.419,3.419,0,0,1,3.226,5.046,4.79,4.79,0,0,1-4.509,3.038c-3.054.061-6.11.014-9.166.028-.481,0-.658-.086-.574-.644.305-2.059.276-2.066,2.377-2.069,1.954,0,3.907-.011,5.859.016a1.875,1.875,0,0,0,1.515-.616,1.39,1.39,0,0,0,.272-1.5,1.085,1.085,0,0,0-1.153-.646h-3.686c-2.222,0-3.511-.751-4-2.3a4.56,4.56,0,0,1,1.94-4.941,5.2,5.2,0,0,1,2.935-.913h4.346Z" transform="translate(-101.527 -0.049)" fill="#fff"/>
    <path id="路径_472" data-name="路径 472" d="M400.681,2.923h-.655c-1.58.005-2.075.407-2.333,1.987-.432,2.633-.86,5.283-1.229,7.932-.109.767-.351,1.1-1.181,1.027a22.982,22.982,0,0,0-2.738-.009c-.527.018-.662-.19-.583-.676.495-3.014.913-6.042,1.485-9.038A5.14,5.14,0,0,1,398.581.207c1.638,0,3.275.03,4.915,0,.535-.011.644.125.386.572-.332.572-.681,1.134-1,1.713a.811.811,0,0,1-.781.425h-1.417Z" transform="translate(-323.141 -0.166)" fill="#fff"/>
    <path id="路径_473" data-name="路径 473" d="M1.989,13.762c-2.161,0-2.178,0-1.852-2.134C.379,10.009.664,8.4.9,6.78a1.09,1.09,0,0,1,.662-.944c.42-.188.785-.4,1.176-.6,1.35-.7,1.35-.7.109-1.511A2.369,2.369,0,0,1,1.966.4.5.5,0,0,1,2.5.124c1.039,0,2.078.021,3.116-.018.692-.019.781.291.692.872C5.891,3.46,5.5,5.944,5.1,8.429c-.232,1.459-.491,2.916-.663,4.388-.088.737-.351,1.053-1.123.96a10.341,10.341,0,0,0-1.327-.016Z" transform="translate(0.017 -0.082)" fill="#fff"/>
  </g>
</svg>
